<svg width="79" height="25" viewBox="0 0 79 25" fill="none" xmlns="http://www.w3.org/2000/svg">
<path fill-rule="evenodd" clip-rule="evenodd" d="M25 0H0V25H25V0ZM17.664 18V6.8H15.072V11.216H9.98399V6.8H7.392V18H9.98399V13.408H15.072V18H17.664Z" fill="#C11A19"/>
<path fill-rule="evenodd" clip-rule="evenodd" d="M52 0H27V25H52V0ZM45.944 19.32V14.888H44.376V5.8H35.768L35.64 9.304C35.576 11.0853 35.4053 12.456 35.128 13.416C34.8507 14.376 34.376 14.8667 33.704 14.888H33.256L33.24 19.32H35.64V17H43.544V19.32H45.944ZM37.592 12.904C37.7627 11.9973 37.8747 10.8773 37.928 9.54401L37.976 7.912H41.816V14.888H36.808C37.16 14.4613 37.4213 13.8 37.592 12.904Z" fill="#C11A19"/>
<path fill-rule="evenodd" clip-rule="evenodd" d="M79 0H54V25H79V0ZM72.944 19.32V14.888H71.376V5.8H62.768L62.64 9.304C62.576 11.0853 62.4053 12.456 62.128 13.416C61.8507 14.376 61.376 14.8667 60.704 14.888H60.256L60.24 19.32H62.64V17H70.544V19.32H72.944ZM64.592 12.904C64.7627 11.9973 64.8747 10.8773 64.928 9.544L64.976 7.912H68.816V14.888H63.808C64.16 14.4613 64.4213 13.8 64.592 12.904Z" fill="#C11A19"/>
</svg>
